<?xml version="1.0" encoding="utf-8"?>
<svg version="1.1" xmlns="http://www.w3.org/2000/svg" xmlns:xlink="http://www.w3.org/1999/xlink" x="0px" y="0px"
   viewBox="0 0 2000 2000" style="enable-background:new 0 0 2000 2000;">
  <defs>
    <linearGradient id="logo-gradient" gradientUnits="userSpaceOnUse" x1="1860.21" y1="243.4" x2="-8.43" y2="1886.97">
      <stop offset="0" style="stop-color:#FF2CDF"/>
      <stop offset="1" style="stop-color:#0014FF"/>
    </linearGradient>
  </defs>
  <circle fill="url(#logo-gradient)" cx="1000" cy="1000" r="956.13"/>
  <g fill="#FFFFFF">
    <path d="M1019.89,467.76c0,71.16-57.68,128.84-128.84,128.84l0,0c71.16,0,128.84,57.68,128.84,128.84h0 c0-71.16,57.68-128.84,128.84-128.84l0,0C1077.58,596.6,1019.89,538.92,1019.89,467.76L1019.89,467.76z"/>
    <path d="M844.54,265.86c0,64.14-52,116.14-116.14,116.14l0,0c64.14,0,116.14,52,116.14,116.14h0 c0-64.14,52-116.14,116.14-116.14l0,0C896.54,382,844.54,330,844.54,265.86L844.54,265.86z"/>
    <path d="M1187.39,255.77c0,56.7-45.97,102.67-102.67,102.67l0,0c56.7,0,102.67,45.97,102.67,102.67h0 c0-56.7,45.97-102.67,102.67-102.67l0,0C1233.36,358.44,1187.39,312.48,1187.39,255.77L1187.39,255.77z"/>
    <path d="M1756.38,965.47l-38.12-25.42c-45.35-30.1-89.76-45.34-132.03-45.34c-118.65,0-204.26,116.78-237.17,170.15 c4.28,3.34,8.03,7.63,11.24,12.44c133.1,201.72,112.76,417.48,58.86,580.28c204.66-135.91,339.63-368.66,339.63-632.71 C1758.78,1004.8,1757.98,985,1756.38,965.47z"/>
    <path d="M413.77,894.84c-42.27,0-86.68,15.11-132.03,45.21l-38.12,25.28c-1.61,19.66-2.41,39.46-2.41,59.52 c0,264.05,134.97,496.8,339.63,632.71c-53.91-162.79-74.24-378.56,58.86-580.28c3.21-4.81,6.96-9.1,11.24-12.44 C618.03,1011.35,532.42,894.84,413.77,894.84z"/>
    <path d="M1366.98,952.63c3.21-3.48,6.56-6.95,9.9-10.43c80.13-82,208.81-154.37,370.93-46.68 c-18.9-174.57-137.32-329.03-191.74-391.8c-8.43-10.59-17.46-20.95-27.19-29.75c-0.03-0.03-0.15-0.16-0.15-0.16l0,0.01 c-14.32-12.91-30.15-22.38-47.76-24.04c-39.91-3.75-79.49,23.5-110.57,43.93c-143.2,94.18-249.91,250.59-340.78,392.96 c-13.91,21.67-45.48,21.67-59.26,0c-23.79-37.42-48.73-74.12-74.61-110.12c-55.77-77.59-116.07-153.29-186.1-218.57 c-32-29.82-66.42-58-104.79-79.28c-46.57-25.83-88.91-43.82-133.04-2.37c-22.79,21.4-44,45.9-63.69,71.72 c-0.47,0.59-0.88,1.05-1.35,1.65c-59.86,76.02-97.16,154.06-120.11,216.76c-0.08,0.23-0.18,0.44-0.26,0.67 c-0.08,0.21-0.14,0.42-0.21,0.63c-27.32,75.04-34.01,127.74-34.01,127.74l1.67-2.1c-0.54,0.94-1.09,1.71-1.67,2.1 c162.12-107.55,290.81-35.32,370.93,46.68c3.34,3.48,6.69,6.95,9.9,10.43c4.95,5.35,9.5,10.57,14.05,15.78 c2.94,3.48,5.89,6.96,8.56,10.43c54.26,70.5,99.52,147.69,150.79,220.37c51.52,73.03,105.79,145.6,157.8,217.31 c17.66,24.34,54.04,24.34,71.56,0c4.14-5.75,8.28-11.51,12.42-17.26c50.34-69.96,102.71-138.9,150.41-210.63 c47.15-70.9,93.82-142.25,145.77-209.79c2.68-3.48,5.62-6.96,8.56-10.44C1357.35,963.2,1362.03,957.98,1366.98,952.63z"/>
  </g>
</svg>